<svg width="487" height="173" viewBox="0 0 487 173" fill="none" xmlns="http://www.w3.org/2000/svg">
<path d="M16.1599 4.31429V71H0.0838695V4.31429H16.1599ZM42.083 32.0695V44.4356H11.5798V32.0695H42.083ZM44.6937 4.31429V16.7263H11.5798V4.31429H44.6937ZM86.5591 58.9544V21.4437H102.04V71H87.5667L86.5591 58.9544ZM88.0247 48.8783L92.0552 48.7867C92.0552 52.1149 91.6583 55.1988 90.8644 58.0384C90.0705 60.8475 88.8949 63.2902 87.3377 65.3665C85.811 67.4428 83.9179 69.0611 81.6585 70.2214C79.4295 71.3511 76.8494 71.916 73.9181 71.916C71.4754 71.916 69.2312 71.5801 67.1855 70.9084C65.1702 70.2061 63.4298 69.1222 61.9642 67.6566C60.4986 66.1604 59.3535 64.252 58.5291 61.9315C57.7353 59.5804 57.3383 56.7713 57.3383 53.5042V21.4437H72.7731V53.5958C72.7731 54.695 72.9105 55.6415 73.1853 56.4354C73.4601 57.2293 73.8571 57.901 74.3762 58.4506C74.8952 58.9697 75.5364 59.3666 76.2998 59.6414C77.0937 59.8857 77.9944 60.0078 79.002 60.0078C81.3226 60.0078 83.1393 59.5193 84.4523 58.5422C85.7652 57.5651 86.6813 56.2369 87.2003 54.5576C87.7499 52.8782 88.0247 50.9851 88.0247 48.8783ZM134.837 0.650238V71H119.356V0.650238H134.837ZM168.641 0.650238V71H153.161V0.650238H168.641ZM212.11 57.0766C212.11 56.2217 211.82 55.4889 211.239 54.8782C210.69 54.237 209.713 53.6568 208.308 53.1378C206.904 52.5881 204.934 52.0385 202.4 51.4889C199.988 50.9699 197.713 50.2829 195.576 49.4279C193.469 48.573 191.621 47.5348 190.034 46.3135C188.446 45.0921 187.194 43.6418 186.278 41.9624C185.393 40.283 184.95 38.3594 184.95 36.1915C184.95 34.0847 185.393 32.1 186.278 30.2374C187.194 28.3444 188.522 26.6803 190.263 25.2452C192.034 23.7796 194.186 22.6345 196.721 21.8101C199.255 20.9552 202.14 20.5277 205.377 20.5277C209.835 20.5277 213.682 21.2147 216.919 22.5887C220.155 23.9322 222.644 25.8253 224.384 28.268C226.155 30.6802 227.041 33.474 227.041 36.6495H211.606C211.606 35.3976 211.392 34.329 210.965 33.4435C210.568 32.558 209.911 31.8863 208.995 31.4283C208.079 30.9397 206.858 30.6954 205.331 30.6954C204.262 30.6954 203.285 30.8939 202.4 31.2909C201.545 31.6878 200.858 32.2374 200.339 32.9397C199.82 33.642 199.56 34.4664 199.56 35.4129C199.56 36.0847 199.713 36.6953 200.018 37.2449C200.354 37.764 200.858 38.2526 201.53 38.7106C202.201 39.138 203.056 39.535 204.095 39.9014C205.133 40.2372 206.385 40.5426 207.85 40.8174C211.178 41.4281 214.293 42.2983 217.193 43.428C220.094 44.5578 222.445 46.1608 224.247 48.2371C226.079 50.3134 226.995 53.1072 226.995 56.6186C226.995 58.817 226.491 60.8475 225.483 62.7101C224.476 64.5421 223.025 66.1604 221.132 67.565C219.239 68.939 216.964 70.0077 214.308 70.771C211.652 71.5343 208.659 71.916 205.331 71.916C200.598 71.916 196.598 71.0763 193.331 69.397C190.064 67.6871 187.591 65.5497 185.912 62.9849C184.263 60.3895 183.438 57.7636 183.438 55.1072H197.82C197.881 56.6339 198.247 57.8858 198.919 58.8628C199.621 59.8399 200.553 60.5575 201.713 61.0155C202.873 61.4735 204.217 61.7025 205.743 61.7025C207.148 61.7025 208.308 61.504 209.224 61.1071C210.171 60.7101 210.888 60.1758 211.377 59.504C211.865 58.8018 212.11 57.9926 212.11 57.0766ZM268.311 21.4437V32.1611H238.449V21.4437H268.311ZM244.723 9.12335H260.158V54.8324C260.158 56.1453 260.311 57.1682 260.616 57.901C260.921 58.6033 261.441 59.1071 262.173 59.4124C262.937 59.6872 263.944 59.8246 265.196 59.8246C266.082 59.8246 266.815 59.8094 267.395 59.7788C267.975 59.7178 268.524 59.6414 269.043 59.5498V70.5878C267.731 71.0153 266.356 71.3359 264.921 71.5496C263.486 71.7939 261.96 71.916 260.341 71.916C257.044 71.916 254.219 71.3969 251.868 70.3588C249.548 69.3206 247.777 67.6871 246.555 65.4581C245.334 63.2292 244.723 60.3285 244.723 56.756V9.12335ZM308.161 58.5422V38.1152C308.161 36.7106 307.962 35.5045 307.565 34.4969C307.169 33.4893 306.543 32.7107 305.688 32.1611C304.833 31.5809 303.688 31.2909 302.253 31.2909C301.092 31.2909 300.1 31.4893 299.276 31.8863C298.451 32.2832 297.825 32.8786 297.398 33.6725C296.97 34.4664 296.757 35.474 296.757 36.6953H281.322C281.322 34.4053 281.826 32.2832 282.833 30.329C283.871 28.3444 285.337 26.6192 287.23 25.1536C289.154 23.688 291.444 22.5582 294.1 21.7643C296.787 20.9399 299.779 20.5277 303.077 20.5277C307.016 20.5277 310.527 21.1842 313.611 22.4971C316.726 23.8101 319.184 25.7795 320.985 28.4054C322.787 31.0008 323.687 34.2679 323.687 38.2068V58.4964C323.687 61.733 323.87 64.191 324.237 65.8703C324.603 67.5192 325.122 68.9695 325.794 70.2214V71H310.313C309.581 69.4733 309.031 67.6108 308.665 65.4123C308.329 63.1834 308.161 60.8933 308.161 58.5422ZM310.039 40.7258L310.13 48.9699H303.306C301.871 48.9699 300.65 49.1684 299.642 49.5653C298.665 49.9622 297.871 50.5119 297.26 51.2141C296.68 51.8859 296.253 52.6492 295.978 53.5042C295.734 54.3591 295.611 55.2599 295.611 56.2064C295.611 57.1224 295.825 57.9468 296.253 58.6796C296.711 59.3819 297.321 59.9315 298.085 60.3285C298.848 60.7254 299.703 60.9239 300.65 60.9239C302.359 60.9239 303.81 60.6033 305.001 59.962C306.222 59.2903 307.153 58.4812 307.794 57.5346C308.436 56.5881 308.756 55.7026 308.756 54.8782L312.146 61.1987C311.535 62.42 310.833 63.6566 310.039 64.9085C309.275 66.1604 308.314 67.3207 307.153 68.3894C306.024 69.4275 304.634 70.2825 302.985 70.9542C301.337 71.5954 299.337 71.916 296.986 71.916C293.932 71.916 291.123 71.2901 288.558 70.0382C286.024 68.7863 283.993 67.0459 282.467 64.8169C280.94 62.5574 280.177 59.962 280.177 57.0308C280.177 54.466 280.635 52.1759 281.551 50.1607C282.497 48.1455 283.917 46.4356 285.81 45.031C287.703 43.6265 290.115 42.5578 293.047 41.825C295.978 41.0922 299.428 40.7258 303.398 40.7258H310.039ZM361.156 60.0078C362.591 60.0078 363.812 59.7483 364.82 59.2292C365.858 58.6796 366.637 57.9163 367.156 56.9392C367.705 55.9316 367.965 54.7255 367.934 53.321H382.453C382.484 57.0461 381.568 60.3132 379.705 63.1223C377.873 65.9009 375.369 68.0688 372.194 69.626C369.049 71.1527 365.492 71.916 361.522 71.916C357.644 71.916 354.255 71.2901 351.355 70.0382C348.454 68.7558 346.026 66.9848 344.072 64.7253C342.149 62.4353 340.698 59.7636 339.721 56.7102C338.775 53.6568 338.301 50.3439 338.301 46.7715V45.7181C338.301 42.1456 338.775 38.8327 339.721 35.7793C340.698 32.6954 342.149 30.0237 344.072 27.7642C346.026 25.4742 348.439 23.7032 351.309 22.4513C354.209 21.1689 357.583 20.5277 361.431 20.5277C365.553 20.5277 369.186 21.3063 372.331 22.8635C375.507 24.4208 377.995 26.6803 379.797 29.642C381.598 32.6038 382.484 36.1915 382.453 40.4052H367.934C367.965 38.909 367.736 37.5655 367.247 36.3747C366.759 35.1839 365.995 34.2374 364.957 33.5351C363.95 32.8023 362.652 32.4359 361.064 32.4359C359.476 32.4359 358.194 32.787 357.217 33.4893C356.24 34.1916 355.492 35.1686 354.973 36.4205C354.484 37.6419 354.148 39.0464 353.965 40.6342C353.812 42.2219 353.736 43.9166 353.736 45.7181V46.7715C353.736 48.6035 353.812 50.3287 353.965 51.9469C354.148 53.5347 354.499 54.9392 355.019 56.1606C355.538 57.3514 356.286 58.298 357.263 59.0002C358.24 59.672 359.538 60.0078 361.156 60.0078ZM412.594 0.604437V71H397.159V0.604437H412.594ZM444.288 21.4437L422.761 46.6799L411.494 57.9468L404.762 48.1455L414.151 35.9167L425.784 21.4437H444.288ZM427.754 71L414.517 48.4203L425.922 40.3136L445.433 71H427.754ZM21.7476 153H6.95396L7.04556 140.634H21.7476C24.8009 140.634 27.381 139.901 29.4879 138.435C31.6252 136.97 33.2435 134.787 34.3427 131.886C35.4725 128.955 36.0374 125.352 36.0374 121.077V118.192C36.0374 114.985 35.7168 112.176 35.0755 109.764C34.4649 107.322 33.5489 105.291 32.3275 103.673C31.1062 102.024 29.5795 100.787 27.7474 99.9629C25.946 99.1385 23.8697 98.7263 21.5186 98.7263H6.67916V86.3143H21.5186C26.0376 86.3143 30.1749 87.0929 33.9305 88.6501C37.7167 90.1768 40.9838 92.3752 43.7319 95.2454C46.5104 98.085 48.6478 101.459 50.144 105.367C51.6706 109.245 52.434 113.55 52.434 118.283V121.077C52.434 125.779 51.6706 130.084 50.144 133.993C48.6478 137.901 46.5257 141.275 43.7777 144.115C41.0296 146.954 37.7778 149.153 34.0221 150.71C30.297 152.237 26.2055 153 21.7476 153ZM16.1599 86.3143V153H0.0838695V86.3143H16.1599ZM92.0552 153.916C88.0247 153.916 84.4218 153.29 81.2462 152.038C78.0707 150.756 75.3838 149 73.1853 146.771C71.0174 144.542 69.3533 141.977 68.1931 139.077C67.0633 136.176 66.4984 133.107 66.4984 129.871V128.13C66.4984 124.497 67.0023 121.138 68.0099 118.054C69.0175 114.94 70.5136 112.222 72.4983 109.902C74.483 107.581 76.9715 105.78 79.9638 104.497C82.9561 103.184 86.437 102.528 90.4064 102.528C93.9178 102.528 97.0627 103.093 99.8413 104.222C102.62 105.352 104.971 106.97 106.895 109.077C108.849 111.184 110.33 113.734 111.337 116.726C112.375 119.718 112.894 123.077 112.894 126.802V133.077H72.4067V123.413H97.8261V122.222C97.8566 120.573 97.5665 119.169 96.9559 118.008C96.3757 116.848 95.5208 115.963 94.391 115.352C93.2613 114.741 91.8873 114.436 90.269 114.436C88.5896 114.436 87.2003 114.802 86.1011 115.535C85.0324 116.268 84.1928 117.276 83.5821 118.558C83.0019 119.81 82.5897 121.26 82.3455 122.909C82.1012 124.558 81.9791 126.298 81.9791 128.13V129.871C81.9791 131.703 82.2233 133.367 82.7119 134.863C83.2309 136.359 83.9637 137.642 84.9103 138.71C85.8874 139.748 87.0477 140.557 88.3911 141.138C89.7652 141.718 91.3224 142.008 93.0628 142.008C95.1696 142.008 97.2459 141.611 99.2917 140.817C101.337 140.023 103.093 138.71 104.559 136.878L111.566 145.214C110.559 146.649 109.124 148.038 107.261 149.382C105.429 150.725 103.231 151.824 100.666 152.679C98.1009 153.504 95.2307 153.916 92.0552 153.916ZM144.363 142.42L154.119 103.444H170.378L154.165 153H144.546L144.363 142.42ZM138.592 103.444L148.21 142.42L148.119 153H138.455L122.287 103.444H138.592ZM206.289 153.916C202.259 153.916 198.656 153.29 195.48 152.038C192.305 150.756 189.618 149 187.419 146.771C185.252 144.542 183.587 141.977 182.427 139.077C181.297 136.176 180.733 133.107 180.733 129.871V128.13C180.733 124.497 181.236 121.138 182.244 118.054C183.252 114.94 184.748 112.222 186.732 109.902C188.717 107.581 191.206 105.78 194.198 104.497C197.19 103.184 200.671 102.528 204.64 102.528C208.152 102.528 211.297 103.093 214.075 104.222C216.854 105.352 219.205 106.97 221.129 109.077C223.083 111.184 224.564 113.734 225.571 116.726C226.609 119.718 227.129 123.077 227.129 126.802V133.077H186.641V123.413H212.06V122.222C212.091 120.573 211.801 119.169 211.19 118.008C210.61 116.848 209.755 115.963 208.625 115.352C207.495 114.741 206.121 114.436 204.503 114.436C202.824 114.436 201.434 114.802 200.335 115.535C199.267 116.268 198.427 117.276 197.816 118.558C197.236 119.81 196.824 121.26 196.58 122.909C196.335 124.558 196.213 126.298 196.213 128.13V129.871C196.213 131.703 196.457 133.367 196.946 134.863C197.465 136.359 198.198 137.642 199.144 138.71C200.121 139.748 201.282 140.557 202.625 141.138C203.999 141.718 205.556 142.008 207.297 142.008C209.404 142.008 211.48 141.611 213.526 140.817C215.572 140.023 217.327 138.71 218.793 136.878L225.8 145.214C224.793 146.649 223.358 148.038 221.495 149.382C219.663 150.725 217.465 151.824 214.9 152.679C212.335 153.504 209.465 153.916 206.289 153.916ZM257.681 82.6502V153H242.201V82.6502H257.681ZM273.257 128.726V127.764C273.257 124.13 273.776 120.787 274.814 117.734C275.852 114.65 277.379 111.978 279.394 109.718C281.41 107.459 283.898 105.703 286.86 104.451C289.822 103.169 293.241 102.528 297.119 102.528C301.028 102.528 304.463 103.169 307.424 104.451C310.417 105.703 312.92 107.459 314.936 109.718C316.951 111.978 318.478 114.65 319.516 117.734C320.554 120.787 321.073 124.13 321.073 127.764V128.726C321.073 132.329 320.554 135.672 319.516 138.756C318.478 141.809 316.951 144.481 314.936 146.771C312.92 149.031 310.432 150.786 307.47 152.038C304.508 153.29 301.089 153.916 297.211 153.916C293.333 153.916 289.898 153.29 286.906 152.038C283.913 150.786 281.41 149.031 279.394 146.771C277.379 144.481 275.852 141.809 274.814 138.756C273.776 135.672 273.257 132.329 273.257 128.726ZM288.692 127.764V128.726C288.692 130.588 288.829 132.329 289.104 133.947C289.379 135.565 289.837 136.985 290.478 138.206C291.119 139.397 291.99 140.328 293.089 141C294.188 141.672 295.562 142.008 297.211 142.008C298.829 142.008 300.173 141.672 301.241 141C302.341 140.328 303.211 139.397 303.852 138.206C304.493 136.985 304.951 135.565 305.226 133.947C305.501 132.329 305.638 130.588 305.638 128.726V127.764C305.638 125.962 305.501 124.268 305.226 122.68C304.951 121.062 304.493 119.642 303.852 118.421C303.211 117.169 302.341 116.192 301.241 115.489C300.142 114.787 298.768 114.436 297.119 114.436C295.501 114.436 294.142 114.787 293.043 115.489C291.974 116.192 291.119 117.169 290.478 118.421C289.837 119.642 289.379 121.062 289.104 122.68C288.829 124.268 288.692 125.962 288.692 127.764ZM351.488 112.97V172.053H336.053V103.444H350.435L351.488 112.97ZM381.9 127.626V128.588C381.9 132.191 381.488 135.535 380.663 138.619C379.839 141.703 378.617 144.389 376.999 146.68C375.381 148.97 373.366 150.756 370.954 152.038C368.572 153.29 365.809 153.916 362.664 153.916C359.702 153.916 357.152 153.26 355.015 151.947C352.878 150.634 351.091 148.817 349.656 146.496C348.221 144.176 347.061 141.519 346.175 138.527C345.29 135.535 344.588 132.374 344.069 129.046V127.81C344.588 124.237 345.29 120.924 346.175 117.871C347.061 114.787 348.221 112.1 349.656 109.81C351.091 107.52 352.862 105.734 354.969 104.451C357.106 103.169 359.656 102.528 362.618 102.528C365.763 102.528 368.526 103.123 370.908 104.314C373.32 105.505 375.335 107.215 376.953 109.444C378.602 111.642 379.839 114.283 380.663 117.367C381.488 120.451 381.9 123.871 381.9 127.626ZM366.465 128.588V127.626C366.465 125.703 366.328 123.947 366.053 122.359C365.778 120.741 365.335 119.337 364.725 118.146C364.144 116.955 363.366 116.039 362.389 115.398C361.412 114.756 360.206 114.436 358.771 114.436C357.122 114.436 355.732 114.695 354.603 115.214C353.503 115.703 352.618 116.466 351.946 117.505C351.305 118.512 350.847 119.779 350.572 121.306C350.328 122.802 350.221 124.558 350.252 126.573V130.329C350.191 132.649 350.42 134.695 350.939 136.466C351.458 138.206 352.358 139.565 353.641 140.542C354.923 141.519 356.664 142.008 358.862 142.008C360.328 142.008 361.549 141.672 362.526 141C363.503 140.298 364.282 139.336 364.862 138.115C365.442 136.863 365.854 135.428 366.099 133.81C366.343 132.191 366.465 130.451 366.465 128.588ZM420.742 153.916C416.712 153.916 413.109 153.29 409.934 152.038C406.758 150.756 404.071 149 401.873 146.771C399.705 144.542 398.041 141.977 396.88 139.077C395.751 136.176 395.186 133.107 395.186 129.871V128.13C395.186 124.497 395.69 121.138 396.697 118.054C397.705 114.94 399.201 112.222 401.186 109.902C403.17 107.581 405.659 105.78 408.651 104.497C411.643 103.184 415.124 102.528 419.094 102.528C422.605 102.528 425.75 103.093 428.529 104.222C431.307 105.352 433.658 106.97 435.582 109.077C437.536 111.184 439.017 113.734 440.025 116.726C441.063 119.718 441.582 123.077 441.582 126.802V133.077H401.094V123.413H426.513V122.222C426.544 120.573 426.254 119.169 425.643 118.008C425.063 116.848 424.208 115.963 423.078 115.352C421.949 114.741 420.575 114.436 418.956 114.436C417.277 114.436 415.888 114.802 414.788 115.535C413.72 116.268 412.88 117.276 412.269 118.558C411.689 119.81 411.277 121.26 411.033 122.909C410.788 124.558 410.666 126.298 410.666 128.13V129.871C410.666 131.703 410.911 133.367 411.399 134.863C411.918 136.359 412.651 137.642 413.598 138.71C414.575 139.748 415.735 140.557 417.078 141.138C418.452 141.718 420.01 142.008 421.75 142.008C423.857 142.008 425.933 141.611 427.979 140.817C430.025 140.023 431.78 138.71 433.246 136.878L440.254 145.214C439.246 146.649 437.811 148.038 435.948 149.382C434.116 150.725 431.918 151.824 429.353 152.679C426.788 153.504 423.918 153.916 420.742 153.916ZM471.402 115.718V153H455.967V103.444H470.394L471.402 115.718ZM486.058 103.077L485.783 117.413C485.172 117.352 484.348 117.276 483.31 117.184C482.272 117.092 481.401 117.047 480.699 117.047C478.898 117.047 477.34 117.26 476.027 117.688C474.745 118.085 473.676 118.695 472.821 119.52C471.997 120.314 471.386 121.321 470.989 122.543C470.623 123.764 470.455 125.184 470.486 126.802L467.692 124.97C467.692 121.642 468.012 118.619 468.654 115.901C469.325 113.153 470.272 110.787 471.493 108.802C472.715 106.787 474.195 105.245 475.936 104.177C477.676 103.077 479.63 102.528 481.798 102.528C482.562 102.528 483.31 102.574 484.043 102.665C484.806 102.757 485.478 102.894 486.058 103.077Z" fill="#181920"/>
</svg>
