<?xml version="1.0" encoding="UTF-8"?>
<!DOCTYPE svg PUBLIC "-//W3C//DTD SVG 1.1//EN" "http://www.w3.org/Graphics/SVG/1.1/DTD/svg11.dtd">
<!-- Creator: CorelDRAW -->
<svg xmlns="http://www.w3.org/2000/svg" xml:space="preserve" width="2048px" height="2048px" style="shape-rendering:geometricPrecision; text-rendering:geometricPrecision; image-rendering:optimizeQuality; fill-rule:evenodd; clip-rule:evenodd"
viewBox="0 0 2048 2048"
 xmlns:xlink="http://www.w3.org/1999/xlink">
 <defs>
  <style type="text/css">
   <![CDATA[
    .fil1 {fill:none}
    .fil0 {fill:#191C1B}
   ]]>
  </style>
 </defs>
 <g id="Layer_x0020_1">
  <metadata id="CorelCorpID_0Corel-Layer"/>
  <g id="_295254152">
   <path id="_295254080" class="fil0" d="M1792 1506.45l0 -795.333 -1536 0 0 795.333c0,23.9457 10.761,45.5457 28.0937,61.0536 16.3914,14.6646 38.6941,23.7697 62.9445,23.7697l1353.93 0c24.2516,0 46.5532,-9.10631 62.9422,-23.7709 17.3339,-15.5067 28.0961,-37.1079 28.0961,-61.0524zm-606.018 -327.592l-324 187.061 -47.876 27.6402 0 -55.265 0 -374.123 0 -55.3382 48.0012 27.7134 324 187.062 47.7839 27.5882 -47.9091 27.6614z"/>
   <path id="_295254224" class="fil0" d="M255.998 679.12l1536 0 0 -137.574c0,-23.9433 -10.761,-45.5457 -28.0949,-61.0548 -16.3878,-14.6634 -38.6894,-23.7685 -62.9434,-23.7685l-1353.93 0c-24.254,0 -46.5555,9.10276 -62.9457,23.7673 -17.3339,15.5079 -28.0925,37.1103 -28.0925,61.056l0 137.574zm1133.91 -95.1993c0,-16.9819 13.7669,-30.7488 30.75,-30.7488 16.9819,0 30.7488,13.7669 30.7488,30.7488 0,16.9831 -13.7669,30.75 -30.7488,30.75 -16.9831,0 -30.75,-13.7669 -30.75,-30.75zm106.394 0c0,-16.9819 13.7669,-30.7488 30.7488,-30.7488 16.9831,0 30.75,13.7669 30.75,30.7488 0,16.9831 -13.7669,30.75 -30.75,30.75 -16.9819,0 -30.7488,-13.7669 -30.7488,-30.75zm106.393 0c0,-16.9819 13.7669,-30.7488 30.75,-30.7488 16.9831,0 30.75,13.7669 30.75,30.7488 0,16.9831 -13.7669,30.75 -30.75,30.75 -16.9831,0 -30.75,-13.7669 -30.75,-30.75z"/>
  </g>
 </g>
 <rect class="fil1" width="2048" height="2048"/>
</svg>
